<?xml version="1.0" encoding="utf-8"?>
<!-- Generator: Adobe Illustrator 21.1.0, SVG Export Plug-In . SVG Version: 6.00 Build 0)  -->
<svg version="1.1" id="Layer_1" xmlns="http://www.w3.org/2000/svg" xmlns:xlink="http://www.w3.org/1999/xlink" x="0px" y="0px"
	 viewBox="0 0 612 596" enable-background="new 0 0 612 596" xml:space="preserve">
<g id="sections">
	<polygon id="section116u" fill="#5E8AB4" points="92.5,565.5 141.2,454.3 169.9,454.3 169.9,497.5 180.6,497.5 180.6,565.5 	"/>
	<polygon id="section116l" fill="#5E8AB4" points="133.9,451.8 177.4,451.8 177.4,365.4 172.3,365.4 	"/>
	<polygon id="section112u" fill="#5E8AB4" points="503.5,565.5 465,473.9 428.4,473.9 428.4,497.3 416.3,497.2 416.3,565.5 	"/>
	<polygon id="section112l" fill="#5E8AB4" points="463.9,451.8 419.3,451.8 419.3,365.4 424.4,365.4 	"/>
	<polygon id="section115u" fill="#5E8AB4" points="189.8,565.5 256.9,565.5 256.9,497.5 239,497.5 239,454.3 204.7,454.3 
		204.9,497.5 189.8,497.5 	"/>
	<rect id="section115l" x="188.5" y="365.4" fill="#5E8AB4" width="65.6" height="86.4"/>
	<polygon id="section114u" fill="#5E8AB4" points="265.2,566.2 332.3,566.2 332.3,498.2 324.5,498.2 324.5,473.9 274,473.9 
		274.2,498.2 265.2,498.2 	"/>
	<rect id="section114l" x="265.8" y="372.4" fill="#5E8AB4" width="67" height="79.4"/>
	<polygon id="section113u" fill="#5E8AB4" points="340.4,565.5 406.6,565.5 406.5,497.5 392.6,497.5 392.6,454.3 361.3,454.3 
		361.3,497.5 340.4,497.5 	"/>
	<rect id="section113l" x="343.9" y="365.4" fill="#5E8AB4" width="64.6" height="86.4"/>
	<polygon id="section117" fill="#5E8AB4" points="134.8,432.9 161.7,366 155.6,360.4 100.2,383.2 87.5,370 72.6,374.7 	"/>
	<polygon id="section111" fill="#5E8AB4" points="470.9,443.8 536.5,378.8 511.1,368.3 498.6,380.2 436.5,355.5 433,360.2 	"/>
	<polygon id="section110" fill="#5E8AB4" points="535.1,369 535.1,301 435.8,301 435.8,309.2 428,309.8 428,334.5 440.5,339.2 
		440.5,331.1 	"/>
	<polygon id="section118" fill="#5E8AB4" points="61.1,356 61.1,301 160.5,301 160.5,309.2 168.2,309.8 168.2,334.5 155.7,339.2 
		155.7,331.1 98.3,355.7 	"/>
	<polygon id="section103u" fill="#5E8AB4" points="94.5,29.7 141.2,140 169.9,140 169.9,96.8 180.6,96.8 180.6,29.7 	"/>
	<polygon id="section103l" fill="#5E8AB4" points="133.9,142.5 177.4,142.5 177.4,228.9 172.3,228.9 	"/>
	<polygon id="section107u" fill="#5E8AB4" points="503.5,29.7 458.8,139.4 429.4,139.4 428.4,96.9 416.3,97.1 416.3,29.7 	"/>
	<polygon id="section107l" fill="#5E8AB4" points="463.9,142.5 419.3,142.5 419.3,228.9 424.4,228.9 	"/>
	<polygon id="section104u" fill="#5E8AB4" points="189.8,29.7 256.9,29.7 256.9,96.8 239,96.8 239,139.4 204.7,139.4 204.9,96.8 
		189.8,96.8 	"/>
	<rect id="section104l" x="188.5" y="142.5" fill="#5E8AB4" width="64.6" height="86.4"/>
	<polygon id="sectionBu" fill="#5E8AB4" points="265.2,29 332.3,29 332.3,96.1 324.5,96.1 324.5,139.4 274,139.4 274.2,96.1 
		265.2,96.1 	"/>
	<rect id="sectionBl" x="263.8" y="142.5" fill="#5E8AB4" width="69" height="79.4"/>
	<polygon id="section106u" fill="#5E8AB4" points="340.4,29.7 406.6,29.7 406.5,96.8 392.6,96.8 392.6,139.4 359.3,139.4 
		359.3,96.8 340.4,96.8 	"/>
	<rect id="section106l" x="343.9" y="142.5" fill="#5E8AB4" width="64.6" height="86.4"/>
	<polygon id="section102" fill="#5E8AB4" points="134.8,161.4 161.7,228.3 155.6,233.9 100.2,211.1 87.5,224.3 72.6,219.6 	"/>
	<polygon id="section108" fill="#5E8AB4" points="470.9,150.5 536.5,215.5 511.1,226 498.6,214.1 436.5,238.8 433,234 	"/>
	<polygon id="section109" fill="#5E8AB4" points="535.1,225.3 535.1,293.2 435.8,293.2 435.8,285.1 428,284.4 428,259.8 440.5,255 
		440.5,263.1 	"/>
	<polygon id="section101" fill="#5E8AB4" points="61.1,238.3 61.1,293.2 160.5,293.2 160.5,285.1 168.2,284.4 168.2,259.8 
		155.7,255 155.7,263.1 98.3,238.6 	"/>
</g>
<g id="floorlayer">
	<rect id="floor" x="193.3" y="237.9" fill="#001F5B" width="207.3" height="116.1"/>
</g>
</svg>
