<svg version="1.1" xmlns="http://www.w3.org/2000/svg" xmlns:xlink="http://www.w3.org/1999/xlink" x="0px" y="0px"
	 viewBox="0 0 612 596" enable-background="new 0 0 612 596" xml:space="preserve">
<g id="sections">
	<g id="section116">
		<polygon id="p116u" fill="#5E8AB4" points="92.512,565.544 141.216,454.271 169.947,454.271 169.947,497.48 180.63,497.48 
			180.63,565.544 		"/>
		<polygon id="p116l" fill="#5E8AB4" points="133.869,451.768 177.42,451.768 177.42,365.367 172.298,365.367 		"/>
	</g>
	<g id="section112">
		<polygon id="p112u" fill="#5E8AB4" points="503.456,565.544 464.96,473.889 428.428,473.889 428.428,497.34 416.339,497.171 
			416.339,565.544 		"/>
		<polygon id="p112l" fill="#5E8AB4" points="463.874,451.768 419.323,451.768 419.323,365.367 424.445,365.367 		"/>
	</g>
	<g id="section115">
		<polygon id="p115u" fill="#5E8AB4" points="189.839,565.544 256.929,565.544 256.929,497.48 239.023,497.48 239.023,454.271 
			204.731,454.271 204.9,497.48 189.839,497.48 		"/>
		<rect id="p115l" x="188.461" y="365.367" fill="#5E8AB4" width="65.637" height="86.4"/>
	</g>
	<g id="section114">
		<polygon id="p114u" fill="#5E8AB4" points="265.152,566.22 332.323,566.22 332.323,498.156 324.498,498.156 324.498,473.866 
			273.99,473.866 274.159,498.156 265.152,498.156 		"/>
		<rect id="p114l" x="265.801" y="372.35" fill="#5E8AB4" width="67.029" height="79.418"/>
	</g>
	<g id="section113">
		<polygon id="p113u" fill="#5E8AB4" points="340.378,565.544 406.636,565.544 406.467,497.48 392.615,497.48 392.615,454.271 
			361.324,454.271 361.324,497.48 340.378,497.48 		"/>
		<rect id="p113l" x="343.871" y="365.367" fill="#5E8AB4" width="64.637" height="86.4"/>
	</g>
	<g id="section117">
		<polygon id="p117" fill="#5E8AB4" points="134.797,432.851 161.666,365.957 155.645,360.355 100.166,383.166 87.498,369.999 
			72.633,374.666 		"/>
	</g>
	<g id="section111">
		<polygon id="p111" fill="#5E8AB4" points="470.915,443.768 536.471,378.768 511.133,368.295 498.577,380.188 436.498,355.501 
			433.035,360.228 		"/>
	</g>
	<g id="section110">
		<polygon id="p110" fill="#5E8AB4" points="535.146,368.957 535.146,301.05 435.819,301.05 435.819,309.158 428.049,309.834 
			428.049,334.497 440.549,339.227 440.549,331.118 		"/>
	</g>
	<g id="section118">
		<polygon id="p118" fill="#5E8AB4" points="61.146,355.957 61.146,301.05 160.474,301.05 160.474,309.158 168.244,309.834 
			168.244,334.497 155.744,339.227 155.744,331.118 98.281,355.703 		"/>
	</g>
	<g id="section103">
		<polygon id="p103u" fill="#5E8AB4" points="94.512,29.719 141.216,139.992 169.947,139.992 169.947,96.782 180.63,96.782 
			180.63,29.719 		"/>
		<polygon id="p103l" fill="#5E8AB4" points="133.869,142.495 177.42,142.495 177.42,228.896 172.298,228.896 		"/>
	</g>
	<g id="section107">
		<polygon id="p107u" fill="#5E8AB4" points="503.456,29.719 458.75,139.397 429.428,139.397 428.428,96.923 416.339,97.092 
			416.339,29.719 		"/>
		<polygon id="p107l" fill="#5E8AB4" points="463.874,142.495 419.323,142.495 419.323,228.896 424.445,228.896 		"/>
	</g>
	<g id="section104">
		<polygon id="p104u" fill="#5E8AB4" points="189.839,29.719 256.929,29.719 256.929,96.782 239.023,96.782 239.023,139.397 
			204.731,139.397 204.9,96.782 189.839,96.782 		"/>
		<rect id="p104l" x="188.461" y="142.495" fill="#5E8AB4" width="64.637" height="86.4"/>
	</g>
	<g id="section105">
		<g>
			<polygon id="p105u" fill="#5E8AB4" points="265.152,29.043 332.323,29.043 332.323,96.106 324.498,96.106 324.498,139.397 
				273.99,139.397 274.159,96.106 265.152,96.106 			"/>
		</g>
		<rect id="p105l" x="263.801" y="142.495" fill="#5E8AB4" width="69.029" height="79.418"/>
	</g>
	<g id="section106">
		<polygon id="p106u" fill="#5E8AB4" points="340.378,29.719 406.636,29.719 406.467,96.782 392.615,96.782 392.615,139.397 
			359.324,139.397 359.324,96.782 340.378,96.782 		"/>
		<rect id="p106l" x="343.871" y="142.495" fill="#5E8AB4" width="64.637" height="86.4"/>
	</g>
	<g id="section102">
		<polygon id="p102" fill="#5E8AB4" points="134.797,161.412 161.666,228.306 155.645,233.908 100.166,211.097 87.498,224.264 
			72.633,219.597 		"/>
	</g>
	<g id="section108">
		<polygon id="p108" fill="#5E8AB4" points="470.915,150.495 536.471,215.495 511.133,225.968 498.577,214.075 436.498,238.762 
			433.035,234.035 		"/>
	</g>
	<g id="section109">
		<polygon id="p109" fill="#5E8AB4" points="535.146,225.306 535.146,293.213 435.819,293.213 435.819,285.105 428.049,284.429 
			428.049,259.766 440.549,255.036 440.549,263.145 		"/>
	</g>
	<g id="section101">
		<polygon id="p101" fill="#5E8AB4" points="61.146,238.306 61.146,293.213 160.474,293.213 160.474,285.105 168.244,284.429 
			168.244,259.766 155.744,255.036 155.744,263.145 98.281,238.56 		"/>
	</g>
</g>
<g id="floorlayer">
	<rect id="floor" x="193.333" y="237.908" fill="#001F5B" width="207.333" height="116.092"/>
</g>
</svg>